<svg xmlns="http://www.w3.org/2000/svg" width="299.609" height="297.848" viewBox="0 0 299.609 297.848">
  <g id="Group_1" data-name="Group 1" transform="translate(281.789 8.439)">
    <path id="Icon_awesome-brain" data-name="Icon awesome-brain" d="M106.558,0A32.678,32.678,0,0,0,74.9,24.645c-.41,0-.717-.1-1.127-.1A32.786,32.786,0,0,0,40.984,57.267a30.1,30.1,0,0,0,.871,7.158,40.512,40.512,0,0,0-21.209,55.682,40.719,40.719,0,0,0,4.662,73.118,37.4,37.4,0,0,0-.717,7.21,36.827,36.827,0,0,0,36.886,36.815,34.8,34.8,0,0,0,6.148-.614,36.807,36.807,0,0,0,71.722-11.658V32.724A32.786,32.786,0,0,0,106.558,0ZM295.085,155.439a40.68,40.68,0,0,0-20.646-35.332,40.18,40.18,0,0,0,4.252-17.845A40.9,40.9,0,0,0,253.23,64.425a32.415,32.415,0,0,0-31.916-39.882c-.41,0-.768.1-1.127.1a32.731,32.731,0,0,0-64.447,8.079V224.978a36.807,36.807,0,0,0,71.722,11.658,34.8,34.8,0,0,0,6.148.614,36.827,36.827,0,0,0,36.886-36.815,37.4,37.4,0,0,0-.717-7.21A40.905,40.905,0,0,0,295.085,155.439Z" transform="translate(-281.789 5.781) rotate(-1)" fill="#892b2b"/>
    <path id="Icon_awesome-rocketchat" data-name="Icon awesome-rocketchat" d="M139.482,20.558C117.422,10.676,88.1,8.426,63.743,11.407,36.493-6.415,5.956,1.782,0,4.139c0,0,20.956,12.074,17.552,22.649-24.81,17.149-13.016,36.242,0,45.258C20.956,82.621,0,94.695,0,94.695c5.9,2.364,36.352,10.536,63.743-7.194,24.3,2.961,53.624.731,75.739-9.169,34.2-14.8,34.311-42.893,0-57.775ZM84.358,78.236a141.367,141.367,0,0,1-25.266-2.211l-5.669,3.712a54.915,54.915,0,0,1-10.492,5.325A56.628,56.628,0,0,1,28.1,87.927c.287-.346.539-.692.794-1.019Q37.4,76.214,33.485,67.72c-9.328-4.979-14.911-11.343-14.911-18.3,0-15.943,29.462-28.859,65.785-28.859s65.785,12.916,65.785,28.859S120.682,78.236,84.358,78.236ZM52.8,56.281c-5.422.052-9.885-2.88-9.979-6.556-.2-8.825,19.451-9.018,19.649-.212v.1a5.74,5.74,0,0,1-2.795,4.7A12.4,12.4,0,0,1,52.8,56.285Zm21.154-6.556c-.227-8.825,19.425-9.037,19.652-.231v.119C93.715,58.377,74.179,58.472,73.952,49.725Zm41.115,6.556c-5.423.052-9.886-2.88-9.982-6.556-.2-8.825,19.454-9.018,19.652-.212v.1a5.713,5.713,0,0,1-2.785,4.7,12.371,12.371,0,0,1-6.884,1.971Z" transform="translate(-196.72 135.926) rotate(-61)"/>
    <path id="Icon_weather-smoke" data-name="Icon weather-smoke" d="M7.608,55.773A34.674,34.674,0,0,1,11.35,39.535q3.721-7.153,9.46-9.086c1.051-7.217,3.448-13.21,7.232-17.849S36.114,5.64,40.991,5.64c4.709,0,8.955,2.255,12.7,6.766s6.138,10.31,7.274,17.334H62.1c4.709,0,8.745,2.513,12.109,7.6,3.321,5.026,5,11.212,5,18.365a37.152,37.152,0,0,1-1.556,10.955,28.372,28.372,0,0,1-4.33,8.828v.193A22.107,22.107,0,0,1,70.968,85.93c-1.556,3.029-3.532,4.9-5.886,5.735a23.6,23.6,0,0,1-3.826,10.181A12,12,0,0,1,54.4,107a14.762,14.762,0,0,1,1.808,7.282,14.557,14.557,0,0,1-2.144,7.99c-1.429,2.191-3.153,3.351-5.171,3.351s-3.742-1.1-5.171-3.351a14.406,14.406,0,0,1-2.144-7.99A15.635,15.635,0,0,1,42,110.61h-.42q-3.658,0-6.307-4.06a17.293,17.293,0,0,1-2.649-9.666,17.721,17.721,0,0,1,1.261-6.895,15.578,15.578,0,0,1-4.709-8.055H23.795v-.064c-4.5-.451-8.325-3.157-11.478-8.184S7.608,62.733,7.608,55.773Zm5.886-1.611a23.536,23.536,0,0,0,3.532,13.145c2.354,3.609,5.213,5.413,8.535,5.413a8.769,8.769,0,0,0,5.76-2.191,23.9,23.9,0,0,0,4.373,11.986c2.4,3.222,5.255,4.768,8.493,4.768,3.658,0,6.769-2,9.334-5.928,1.724,3.093,3.868,4.575,6.475,4.575,2.4,0,4.415-1.289,6.138-3.866a16.9,16.9,0,0,0,2.523-9.408,17.939,17.939,0,0,0,3.994-6.7,26.151,26.151,0,0,0,1.472-8.828A22.787,22.787,0,0,0,70.547,44.11c-2.4-3.544-5.255-5.348-8.619-5.348A9.1,9.1,0,0,0,55.5,41.6a32.3,32.3,0,0,0,.336-5.091A28.055,28.055,0,0,0,51.5,20.654c-2.9-4.382-6.391-6.508-10.469-6.508-3.952,0-7.358,2.126-10.217,6.251a27.358,27.358,0,0,0-4.5,15.272H25.6c-3.321,0-6.138,1.8-8.535,5.413A23.293,23.293,0,0,0,13.494,54.162Z" transform="matrix(-0.819, -0.574, 0.574, -0.819, -190.734, 298.392)"/>
  </g>
</svg>
